<svg width="179" height="17" viewBox="0 0 179 17" fill="none" xmlns="http://www.w3.org/2000/svg">
<path fill-rule="evenodd" clip-rule="evenodd" d="M53 0H60.0645C62.7903 0 65 2.20969 65 4.93548C65 7.66128 62.7903 9.87097 60.0645 9.87097H56.0001V17H53.0001V9.87097H53V6.58065L53.0001 6.58064H56.0001L60.3549 6.58065C61.2635 6.58065 62.0001 5.84408 62.0001 4.93548C62.0001 4.02689 61.2635 3.29032 60.3549 3.29032H53V0Z" fill="black"/>
<path fill-rule="evenodd" clip-rule="evenodd" d="M71 17V1.43825e-07L74.12 0V7.12903H80.88V1.43825e-07L84 0V17H80.88V10.4194H74.12V17H71Z" fill="black"/>
<path fill-rule="evenodd" clip-rule="evenodd" d="M36 0V13.8125V17H47V13.8125H39.1429V0H36Z" fill="black"/>
<path d="M90 0V17H93V0H90Z" fill="black"/>
<path fill-rule="evenodd" clip-rule="evenodd" d="M4.82549 0H0V3.1875H5.08756C8.02157 3.1875 10.4001 5.56599 10.4001 8.5C10.4001 11.434 8.02157 13.8125 5.08756 13.8125H0V17H4.82549C9.34015 17 13 13.3401 13 8.82549V8.17451C13 3.65985 9.34015 0 4.82549 0Z" fill="black"/>
<path fill-rule="evenodd" clip-rule="evenodd" d="M18 0H29V3.1875H18V0ZM18 6.90625H27.9524V10.0938H18V6.90625ZM29 13.8125H18V17H29V13.8125Z" fill="black"/>
<path fill-rule="evenodd" clip-rule="evenodd" d="M134.254 3.11667L141 17H137.762L132.603 6.38333L127.238 17H124L131.016 3.11667L132.635 0L134.254 3.11667Z" fill="black"/>
<path fill-rule="evenodd" clip-rule="evenodd" d="M173.96 10.0937H170.04H169.76C169.076 10.0937 168.417 9.92659 167.832 9.62196C166.054 8.79428 165 6.98361 165 5.04687C165 2.40626 167.256 0 170.04 0H178.44V3.1875H170.04C169.112 3.1875 168.36 4.16667 168.36 5.04687C168.36 5.92707 169.112 6.90624 170.04 6.90624H174.644C175.582 6.90624 176.452 7.24407 177.127 7.81322C178.318 8.66315 179 10.0826 179 11.9531C179 14.5937 176.744 17 173.96 17H165.56V13.8125H173.96C174.888 13.8125 175.64 12.8333 175.64 11.9531C175.64 11.0729 174.888 10.0937 173.96 10.0937Z" fill="black"/>
<path fill-rule="evenodd" clip-rule="evenodd" d="M147 0H154.219C156.859 0 159 2.14064 159 4.78125C159 6.19589 158.386 7.46704 157.409 8.34244C158.388 9.25516 159 10.5561 159 12C159 14.7614 156.761 17 154 17H147V14H154C155.105 14 156 13.1046 156 12C156 10.8954 155.105 10 154 10H147V9.5625V7H154C155.105 7 156 6.10457 156 5C156 3.89543 155.105 3 154 3H147V0Z" fill="black"/>
<path fill-rule="evenodd" clip-rule="evenodd" d="M109 0V13.8125V17H120V13.8125H112.143V0H109Z" fill="black"/>
</svg>
