<svg width="79" height="97" viewBox="0 0 79 97" fill="none" xmlns="http://www.w3.org/2000/svg">
<path d="M73.7062 20.7328H58.3541V15.7142H78.6742V63.5148H73.7062V20.7328ZM5.33454 49.5284H0.366495V97H27.2021V91.9813H5.33454V49.5284ZM11.1985 8.06276H10.0582V6.99321V1.11069V0.329092H11.2799H12.6644H13.3974H13.6418H13.7639C16.0851 0.370229 17.7139 2.01569 17.7139 4.19593C17.7139 6.37617 16.0851 8.02163 13.7232 8.06276H13.6825H13.4381H12.7052H11.1985ZM11.5242 6.70526H13.7232C15.2299 6.66412 16.2479 5.63571 16.2479 4.19593C16.2479 2.75615 15.2706 1.6866 13.7639 1.64546H11.5649H11.4428V6.70526H11.5242ZM3.54278 8.06276H4.8866H8.02217V6.70526H4.8866V1.6866H8.02217V0.329092H4.8866H3.54278H0.366495V1.6866H3.50206V6.70526H0.366495V8.06276H3.54278ZM36.7716 4.19593C36.7716 6.49958 34.8985 8.39186 32.5773 8.39186C30.2562 8.39186 28.383 6.49958 28.383 4.19593C28.3423 1.89228 30.2155 0 32.5366 0C34.8577 0 36.7716 1.89228 36.7716 4.19593ZM32.5366 1.43978C31.0299 1.43978 29.7675 2.67388 29.7675 4.19593C29.7675 5.71798 30.9892 6.95208 32.5366 6.95208C34.0433 6.95208 35.3057 5.71798 35.3057 4.19593C35.3057 2.67388 34.084 1.43978 32.5366 1.43978ZM19.3835 0.329092V1.6866V6.70526V8.06276H25.1253H27.1206V6.70526H20.8088V4.85411H25.7361V3.53774H20.768V1.6866H27.0799V0.329092H25.0438H19.3835ZM54.4856 28.014C54.4856 35.0483 48.8253 40.3961 41.8619 40.3961C34.8985 40.3961 29.3196 35.0483 29.3196 28.014C29.3196 21.0208 34.8985 15.6319 41.8619 15.6319C48.8253 15.6319 54.4856 21.0208 54.4856 28.014ZM41.9026 20.1569C37.5046 20.1569 34.2876 23.4478 34.2876 28.014C34.2876 32.6624 37.4639 35.8711 41.9026 35.8711C46.2598 35.8711 49.5175 32.6624 49.5175 28.014C49.5175 23.4478 46.2598 20.1569 41.9026 20.1569ZM12.583 40.4372C17.1845 40.4372 21.0124 38.1747 23.0485 34.5136L19.3835 31.922C17.7954 34.4724 15.5964 35.9534 12.6237 35.9534C8.22577 35.9534 4.96804 32.7447 4.96804 28.1374C4.96804 23.4478 8.22577 20.1569 12.6237 20.1569C15.5964 20.1569 17.8361 21.6378 19.3835 24.1883L23.0485 21.5967C20.9716 17.9355 17.1845 15.6319 12.6237 15.6319C5.57887 15.6319 0 20.9796 0 28.014C0 35.0483 5.53814 40.4372 12.583 40.4372ZM71.2629 97H63.1593H60.7974V73.2642H65.4397H69.1454C73.5026 73.2642 76.5974 75.9792 76.5974 79.8872C76.5974 81.6561 75.9459 83.0958 74.8464 84.1654C77.4526 85.1115 79 87.1684 79 90.0479C79 94.1204 75.8237 97 71.2629 97ZM65.4397 82.849H68.7381C70.7335 82.849 71.7923 81.7383 71.7923 80.134C71.7923 78.4885 70.7335 77.419 68.7381 77.419H65.4397V82.849ZM74.2763 89.8422C74.2763 87.9911 73.0139 86.8393 70.9371 86.8393H65.4397V92.8041H70.9371C73.0139 92.8041 74.2763 91.6934 74.2763 89.8422ZM37.5046 97H32.4144L42.717 73.2642H44.3052L54.567 97H49.4768L48.1737 93.9559H38.7263L37.5046 97ZM43.4907 82.1908L40.4366 90.0479H46.5041L43.4907 82.1908Z" fill="black"/>
</svg>
