<svg width="68" height="16" viewBox="0 0 68 16" fill="none" xmlns="http://www.w3.org/2000/svg">
<path d="M14.1952 3.23204V0.647949H0V3.23204H5.82146V12.7697H0V15.3538H14.1952V12.7697H8.37521V3.23204H14.1952Z" fill="black"/>
<path d="M17.9438 0.647949H24.8804C29.2078 0.760912 32.1774 3.89551 32.1774 7.97893C32.1774 12.1065 29.1452 15.303 24.7431 15.3538H17.9438V0.647949ZM24.7539 12.8205V12.8227C27.5717 12.7741 29.4079 10.7832 29.4079 8.01863C29.4079 5.26707 27.5884 3.24535 24.7935 3.17703H20.4904V12.8205H24.7539Z" fill="black"/>
<path d="M49.601 3.22118V0.647949H35.292V15.3538H49.601V12.7786H37.8584V9.28639H47.0242V6.71341H37.8584V3.22118H49.601Z" fill="black"/>
<path d="M51.8828 7.99889C51.8828 3.58274 55.3743 0 59.6828 0C63.99 0 67.4831 3.58274 67.4831 7.99889C67.4831 12.4192 63.99 16 59.6828 16C55.3743 16 51.8828 12.4192 51.8828 7.99889ZM54.5757 7.99889C54.5757 10.8937 56.8628 13.2393 59.6829 13.2393C62.5026 13.2393 64.7902 10.8937 64.7902 7.99889C64.7902 5.10823 62.5026 2.7624 59.6829 2.7624C56.8628 2.7624 54.5757 5.10823 54.5757 7.99889Z" fill="black"/>
</svg>
