<svg width="113" height="28" viewBox="0 0 113 28" fill="none" xmlns="http://www.w3.org/2000/svg">
<path d="M23.6472 0.403573V27.4561C23.6472 27.5586 23.6058 27.6569 23.5322 27.7293C23.4587 27.8018 23.3589 27.8425 23.2548 27.8425H20.3749C19.7202 27.8421 19.076 27.6802 18.501 27.3717C17.9261 27.0632 17.4386 26.6179 17.0831 26.0764L4.11579 6.3358L4.55915 16.1945V27.4561C4.55915 27.5586 4.51781 27.6569 4.44423 27.7293C4.37065 27.8018 4.27086 27.8425 4.1668 27.8425H0.392354C0.288295 27.8425 0.188498 27.8018 0.114917 27.7293C0.0413368 27.6569 0 27.5586 0 27.4561V0.403573C0 0.301077 0.0413368 0.202778 0.114917 0.130302C0.188498 0.0578255 0.288295 0.0171092 0.392354 0.0171092H3.23299C3.88803 0.0165191 4.53279 0.177476 5.10847 0.485297C5.68415 0.793117 6.17243 1.238 6.52876 1.77938L19.4764 21.4891L19.0841 11.6729V0.403573C19.0841 0.301077 19.1254 0.202778 19.199 0.130302C19.2726 0.0578255 19.3724 0.0171092 19.4764 0.0171092H23.2509C23.3027 0.0165984 23.3542 0.0262189 23.4022 0.0454117C23.4503 0.0646045 23.494 0.0929901 23.5309 0.128928C23.5677 0.164865 23.597 0.207639 23.6169 0.254781C23.6369 0.301923 23.6472 0.352495 23.6472 0.403573Z" fill="black"/>
<path d="M62.2626 27.8407H58.2606C58.197 27.8405 58.1344 27.8251 58.0781 27.7958C58.0219 27.7664 57.9738 27.7241 57.9379 27.6724C57.902 27.6206 57.8794 27.5611 57.872 27.4989C57.8647 27.4366 57.8728 27.3736 57.8957 27.3151L68.4892 0.386462C68.5295 0.274319 68.6038 0.177086 68.7021 0.107952C68.8003 0.038818 68.9178 0.00112896 69.0385 0H74.041C74.1618 0.00112896 74.2793 0.038818 74.3775 0.107952C74.4758 0.177086 74.5501 0.274319 74.5903 0.386462L85.1839 27.3151C85.2069 27.3739 85.215 27.4373 85.2075 27.4998C85.1999 27.5624 85.177 27.6222 85.1406 27.674C85.1043 27.7258 85.0556 27.7681 84.9988 27.7971C84.9421 27.8262 84.879 27.8411 84.8151 27.8407H80.8013C80.7218 27.8402 80.6444 27.8159 80.5792 27.771C80.514 27.7261 80.4642 27.6628 80.4364 27.5895L71.8988 5.42592C71.8706 5.3526 71.8203 5.28947 71.7548 5.24492C71.6893 5.20038 71.6116 5.17652 71.5319 5.17652C71.4523 5.17652 71.3746 5.20038 71.3091 5.24492C71.2435 5.28947 71.1933 5.3526 71.1651 5.42592L62.6275 27.5934C62.599 27.666 62.549 27.7285 62.4839 27.7726C62.4187 27.8167 62.3416 27.8405 62.2626 27.8407Z" fill="black"/>
<path d="M112.915 27.2146L104.974 17.2285C109.455 16.3938 112.08 13.4103 112.08 8.83849C112.08 3.59424 108.607 0.015625 102.475 0.015625H91.4184C91.2623 0.015625 91.1126 0.0766987 91.0022 0.185411C90.8918 0.294124 90.8298 0.441571 90.8298 0.595314C90.8298 1.58029 91.2271 2.52493 91.9342 3.22142C92.6413 3.91791 93.6003 4.30919 94.6003 4.30919H102.008C105.724 4.30919 107.501 6.17579 107.501 8.881C107.501 11.5862 105.767 13.4915 102.008 13.4915H91.4184C91.2623 13.4915 91.1126 13.5525 91.0022 13.6612C90.8918 13.77 90.8298 13.9174 90.8298 14.0711V27.4542C90.8298 27.5567 90.8712 27.655 90.9448 27.7275C91.0183 27.8 91.1181 27.8407 91.2222 27.8407H94.9966C95.1007 27.8407 95.2005 27.8 95.2741 27.7275C95.3477 27.655 95.389 27.5567 95.389 27.4542V17.4643H99.748L106.642 26.3258C107.008 26.7969 107.48 27.1787 108.02 27.4414C108.56 27.7041 109.154 27.8407 109.757 27.8407H112.605C112.679 27.8411 112.752 27.8209 112.815 27.7825C112.877 27.7441 112.928 27.689 112.96 27.6236C112.993 27.5582 113.006 27.4851 112.998 27.4128C112.99 27.3404 112.961 27.2717 112.915 27.2146Z" fill="black"/>
<path d="M50.3115 0.0156443H32.785C32.6456 0.0156443 32.5119 0.0702047 32.4133 0.167321C32.3147 0.264438 32.2593 0.396154 32.2593 0.533498C32.2603 1.53523 32.6651 2.49559 33.3846 3.20356C34.1041 3.91153 35.0795 4.30921 36.0965 4.3092H50.3154C50.4195 4.3092 50.5193 4.26849 50.5928 4.19601C50.6664 4.12354 50.7078 4.02524 50.7078 3.92275V0.402103C50.7078 0.351026 50.6975 0.300454 50.6775 0.253313C50.6576 0.206172 50.6283 0.163398 50.5915 0.127461C50.5546 0.0915243 50.5109 0.0631391 50.4628 0.0439465C50.4148 0.0247539 50.3633 0.0151335 50.3115 0.0156443ZM50.3115 23.5471H37.2147C37.1107 23.5471 37.0109 23.5064 36.9373 23.4339C36.8637 23.3615 36.8224 23.2632 36.8224 23.1607V16.1812C36.8224 16.0787 36.8637 15.9804 36.9373 15.908C37.0109 15.8355 37.1107 15.7948 37.2147 15.7948H49.3031C49.4072 15.7948 49.507 15.7541 49.5806 15.6816C49.6542 15.6091 49.6955 15.5108 49.6955 15.4083V11.8915C49.6955 11.789 49.6542 11.6907 49.5806 11.6183C49.507 11.5458 49.4072 11.5051 49.3031 11.5051H32.8478C32.6917 11.5051 32.542 11.5661 32.4317 11.6749C32.3213 11.7836 32.2593 11.931 32.2593 12.0848V27.261C32.2593 27.4148 32.3213 27.5622 32.4317 27.6709C32.542 27.7796 32.6917 27.8407 32.8478 27.8407H50.3115C50.4155 27.8407 50.5153 27.8 50.5889 27.7275C50.6625 27.655 50.7038 27.5567 50.7038 27.4542V23.9336C50.7038 23.8311 50.6625 23.7328 50.5889 23.6603C50.5153 23.5879 50.4155 23.5471 50.3115 23.5471Z" fill="black"/>
</svg>
