<svg width="88" height="72" viewBox="0 0 88 72" fill="none" xmlns="http://www.w3.org/2000/svg">
<path d="M87.7997 8.53713C84.5944 9.96385 81.1495 10.9247 77.534 11.3578C81.2258 9.1413 84.0608 5.62909 85.393 1.44356C81.9409 3.49629 78.1148 4.98852 74.042 5.79287C70.7859 2.30978 66.1358 0.133301 60.9958 0.133301C49.456 0.133301 40.9763 10.9283 43.5827 22.1347C28.7323 21.3885 15.5627 14.2549 6.74542 3.41258C2.06272 11.467 4.31695 22.0036 12.2739 27.3393C9.34813 27.2446 6.58933 26.4403 4.18264 25.0973C3.98662 33.3992 9.92167 41.1661 18.5175 42.8949C16.0019 43.5791 13.2467 43.7393 10.4444 43.2006C12.7168 50.3197 19.3161 55.4988 27.1424 55.6444C19.6283 61.5515 10.1612 64.1902 0.679688 63.0692C8.58946 68.1537 17.9875 71.12 28.0789 71.12C61.2644 71.12 80.0133 43.0186 78.8808 17.8145C82.3728 15.2849 85.4039 12.1294 87.7997 8.53713V8.53713Z" fill="white"/>
</svg>
