<svg width="104" height="104" viewBox="0 0 104 104" fill="none" xmlns="http://www.w3.org/2000/svg">
<path d="M36.1517 71.1445C28.8362 71.0084 22.6218 66.3469 20.1922 59.8334C22.7814 60.2081 25.3155 60.012 27.6487 59.3774L27.6161 58.4047C19.5447 56.7814 13.8863 49.6773 13.6836 41.9271C15.9762 43.0712 18.5475 43.7514 21.2577 43.839L23.001 43.8954L21.5524 42.924C14.0248 37.8762 11.7466 28.0382 15.827 20.297C24.7245 30.9249 37.8212 37.8936 52.5576 38.634L53.2199 38.6673L53.0697 38.0214C50.5355 27.1256 58.7809 16.6333 69.9958 16.6333C74.9921 16.6333 79.5115 18.7484 82.6767 22.1343L82.8664 22.3372L83.1389 22.2834C86.8076 21.5589 90.2787 20.2839 93.4618 18.5492C92.0349 22.0615 89.4898 25 86.2767 26.9291L86.5935 27.8543C89.6633 27.4865 92.6124 26.7434 95.3996 25.6615C93.2107 28.6264 90.5693 31.2496 87.5875 33.4095L87.3692 33.5676L87.3813 33.8369C88.5035 58.8117 69.927 86.62 37.0789 86.62C27.8434 86.62 19.195 84.1111 11.7538 79.7556C20.643 80.2881 29.3964 77.5837 36.4514 72.0375L37.5541 71.1706L36.1517 71.1445Z" stroke="white"/>
</svg>
