<svg width="36" height="124" viewBox="0 0 36 124" fill="none" xmlns="http://www.w3.org/2000/svg">
<path d="M-1.27534e-06 94.8235L7.2 94.8235L14.4 94.8235L21.6 94.8235L28.8 94.8235L28.8 102.118L21.6 102.118L14.4 102.118L7.2 102.118L7.2 109.412L14.4 109.412L21.6 109.412L28.8 109.412L28.8 116.706L21.6 116.706L14.4 116.706L7.2 116.706L-3.18836e-07 116.706L0 124L7.2 124L14.4 124L21.6 124L28.8 124L36 124L36 116.706L36 109.412L36 102.118L36 94.8235L36 87.5294L28.8 87.5294L21.6 87.5294L14.4 87.5294L7.2 87.5294L-1.59418e-06 87.5294L-1.27534e-06 94.8235Z" fill="black"/>
<path d="M36.2352 72.8H28.9411H21.647H14.3529H7.05877V65.6H14.3529H21.647H28.9411V58.4H21.647H14.3529H7.05877V51.2H14.3529H21.647H28.9411H36.2352V44H28.9411H21.647H14.3529H7.05877H-0.235352V51.2V58.4V65.6V72.8V80H7.05877H14.3529H21.647H28.9411H36.2352V72.8Z" fill="black"/>
<path d="M28.8 0.000243826L28.8 7.29436L28.8 14.5885L28.8 21.8826L28.8 29.1767L21.6 29.1767L21.6 21.8826L21.6 14.5885L21.6 7.29436L14.4 7.29436L14.4 14.5885L14.4 21.8826L14.4 29.1767L7.2 29.1767L7.2 21.8826L7.2 14.5885L7.2 7.29436L7.2 0.000242882L0 0.000242567L-3.18836e-07 7.29436L-6.37672e-07 14.5885L-9.56508e-07 21.8826L-1.27534e-06 29.1767L-1.59418e-06 36.4708L7.2 36.4708L14.4 36.4708L21.6 36.4708L28.8 36.4708L36 36.4708L36 29.1767L36 21.8826L36 14.5885L36 7.29436L36 0.000244141L28.8 0.000243826Z" fill="black"/>
</svg>
