<svg width="32" height="32" viewBox="0 0 32 32" fill="none" xmlns="http://www.w3.org/2000/svg">
<path d="M30 7.60449C29.0066 8.04666 27.939 8.34444 26.8185 8.47867C27.9626 7.79173 28.8412 6.70324 29.2541 5.40607C28.1842 6.04225 26.9985 6.50472 25.7362 6.754C24.7271 5.67453 23.286 5 21.693 5C18.1166 5 15.4886 8.34557 16.2964 11.8186C11.694 11.5874 7.6125 9.37654 4.87987 6.0163C3.42863 8.51251 4.12725 11.778 6.59325 13.4316C5.6865 13.4023 4.8315 13.153 4.08562 12.7368C4.02487 15.3097 5.86425 17.7168 8.52825 18.2526C7.74862 18.4646 6.89475 18.5143 6.02625 18.3473C6.7305 20.5536 8.77575 22.1587 11.2013 22.2039C8.8725 24.0346 5.9385 24.8523 3 24.5049C5.45138 26.0807 8.364 27 11.4915 27C21.7763 27 27.5869 18.2909 27.2359 10.4797C28.3181 9.69575 29.2575 8.7178 30 7.60449Z" fill="black"/>
</svg>
